<svg width="60" height="60" viewBox="0 0 60 60" fill="none" xmlns="http://www.w3.org/2000/svg">
<circle cx="30" cy="30" r="30" fill="black"/>
<rect width="33.4884" height="33.4884" transform="translate(13.9531 12.5581)" fill="black"/>
<path d="M39.8944 34.9022L39.8563 20.2191L25.1731 20.181C25.0201 20.1603 24.8645 20.1727 24.7167 20.2173C24.569 20.262 24.4325 20.3379 24.3166 20.4399C24.2007 20.5419 24.1081 20.6676 24.045 20.8085C23.982 20.9493 23.9499 21.1021 23.951 21.2565C23.9521 21.4109 23.9863 21.5632 24.0514 21.7032C24.1165 21.8432 24.2109 21.9675 24.3283 22.0678C24.4456 22.1682 24.5831 22.2421 24.7315 22.2847C24.8799 22.3272 25.0357 22.3374 25.1884 22.3145L36.1912 22.3602L21.6147 36.9367C21.4126 37.1388 21.2991 37.4129 21.2991 37.6987C21.2991 37.9845 21.4126 38.2585 21.6147 38.4606C21.8168 38.6627 22.0909 38.7763 22.3767 38.7763C22.6625 38.7763 22.9366 38.6627 23.1387 38.4606L37.7151 23.8841L37.7609 34.887C37.7619 35.1729 37.8764 35.4468 38.0794 35.6483C38.2823 35.8498 38.5569 35.9624 38.8429 35.9614C39.1288 35.9604 39.4027 35.8458 39.6041 35.6429C39.8056 35.44 39.9182 35.1653 39.9172 34.8794L39.8944 34.9022Z" fill="white"/>
</svg>
